/* XPM */
static char * drafts_xpm[] = {
"21 21 136 2",
"  	c None",
". 	c #A3876B",
"+ 	c #B5A08B",
"@ 	c #AFA9A3",
"# 	c #B4A494",
"$ 	c #B7A18B",
"% 	c #92755A",
"& 	c #A8A8A8",
"* 	c #ACACAB",
"= 	c #B6B6B6",
"- 	c #B2ACA5",
"; 	c #AA9480",
"> 	c #B19B86",
", 	c #A08872",
"' 	c #927D6A",
") 	c #DBDBDB",
"! 	c #A4A4A3",
"~ 	c #999999",
"{ 	c #ADADAD",
"] 	c #B5AFA9",
"^ 	c #BBAB9C",
"/ 	c #A88F77",
"( 	c #9C846D",
"_ 	c #9C8B7A",
": 	c #3D3833",
"< 	c #000000",
"[ 	c #C5C5C4",
"} 	c #959595",
"| 	c #8A8989",
"1 	c #988E85",
"2 	c #A5917D",
"3 	c #BAA591",
"4 	c #A9927C",
"5 	c #A38F7C",
"6 	c #7F7266",
"7 	c #070707",
"8 	c #8A8A8A",
"9 	c #878787",
"0 	c #918981",
"a 	c #8D7964",
"b 	c #9F866E",
"c 	c #977F67",
"d 	c #A48F7A",
"e 	c #998878",
"f 	c #3C3834",
"g 	c #202020",
"h 	c #020202",
"i 	c #ABABAB",
"j 	c #A4A09D",
"k 	c #AD9B89",
"l 	c #B5A18E",
"m 	c #907862",
"n 	c #A08A75",
"o 	c #9D8976",
"p 	c #645A50",
"q 	c #2B2A2A",
"r 	c #494948",
"s 	c #2E2E2E",
"t 	c #BFBDBB",
"u 	c #A89583",
"v 	c #B39D89",
"w 	c #A18871",
"x 	c #AA947E",
"y 	c #A79584",
"z 	c #897D72",
"A 	c #343332",
"B 	c #464646",
"C 	c #777776",
"D 	c #888888",
"E 	c #BBAFA4",
"F 	c #B7A18D",
"G 	c #8C745C",
"H 	c #8F7863",
"I 	c #958575",
"J 	c #423F3D",
"K 	c #747473",
"L 	c #9F9F9E",
"M 	c #B6B6B5",
"N 	c #858585",
"O 	c #B6A493",
"P 	c #B39D87",
"Q 	c #A48F7B",
"R 	c #A08B76",
"S 	c #8B7763",
"T 	c #534C45",
"U 	c #424242",
"V 	c #727272",
"W 	c #9E9E9E",
"X 	c #BABABA",
"Y 	c #C5C5C5",
"Z 	c #BFBFBE",
"` 	c #9F856C",
" .	c #99826C",
"..	c #B2A394",
"+.	c #A59789",
"@.	c #58514A",
"#.	c #3D3D3D",
"$.	c #6D6D6D",
"%.	c #9D9D9C",
"&.	c #BCBCBC",
"*.	c #CBCBCB",
"=.	c #CECECE",
"-.	c #A7A7A7",
";.	c #333333",
">.	c #78614A",
",.	c #968573",
"'.	c #968A7F",
").	c #56524F",
"!.	c #696969",
"~.	c #C0C0C0",
"{.	c #CDCDCD",
"].	c #B0B0AF",
"^.	c #4C4C4C",
"/.	c #050505",
"(.	c #040404",
"_.	c #65513D",
":.	c #251D16",
"<.	c #504D4A",
"[.	c #494848",
"}.	c #4D4D4D",
"|.	c #6F6F6F",
"1.	c #9C9C9C",
"2.	c #9A9A99",
"3.	c #484848",
"4.	c #010101",
"5.	c #392D22",
"6.	c #392E22",
"7.	c #7A7A7A",
"8.	c #8D8D8D",
"9.	c #666666",
"0.	c #252525",
"a.	c #060606",
"b.	c #030303",
"c.	c #606060",
"d.	c #2F2F2F",
"e.	c #0A0A0A",
"                                          ",
"                                          ",
"                                          ",
"                            . +           ",
"                      @ # $ %             ",
"            & * = = - ; > , '             ",
"          ) ! ~ { ] ^ / ( _ : <           ",
"          [ } | 1 2 3 4 5 6 7 <           ",
"          8 9 0 a b c d e f g h           ",
"          i j k l m n o p q r s           ",
"          t u v w x y z A B C D           ",
"          E F G H n I J B K L M N         ",
"          O P Q R S T U V W X Y Z         ",
"          `  ...+.@.#.$.%.&.*.=.-.;.      ",
"          >.,.'.).#.!.W ~.{.].^./.(.      ",
"        _.:.<.[.}.|.1.= 2.3.4.(.          ",
"      5.6.  #.7.8 8.9.0.a.b.              ",
"              c.d.e.b.b.                  ",
"                                          ",
"                                          ",
"                                          "};
