/* XPM */
static char * drafts_xpm[] = {
"21 21 143 2",
"  	c None",
". 	c #D7C7BC",
"+ 	c #E3D2C9",
"@ 	c #DED7D1",
"# 	c #E2CCB7",
"$ 	c #8F9F92",
"% 	c #D9F1F4",
"& 	c #E1F3F5",
"* 	c #D3E2E6",
"= 	c #8DB6CD",
"- 	c #8EB6CD",
"; 	c #E9E3DC",
"> 	c #F0E5D2",
", 	c #DDD4C4",
"' 	c #C3C7BC",
") 	c #AD9077",
"! 	c #C0D2DD",
"~ 	c #C7D3DE",
"{ 	c #8BA5BB",
"] 	c #77B4CC",
"^ 	c #B1B0BC",
"/ 	c #F3DECB",
"( 	c #E0D0BF",
"_ 	c #D2CDC2",
": 	c #D1C5B5",
"< 	c #342F29",
"[ 	c #000000",
"} 	c #FAFDFD",
"| 	c #C8D3DD",
"1 	c #AAABAD",
"2 	c #C0B3A8",
"3 	c #D4B89D",
"4 	c #E7CFB8",
"5 	c #BFBAB7",
"6 	c #CBC3BC",
"7 	c #9E9CE4",
"8 	c #98A7B2",
"9 	c #5C657D",
"0 	c #B6ACA2",
"a 	c #B19577",
"b 	c #C9AB8B",
"c 	c #BEBEA9",
"d 	c #B6AB9E",
"e 	c #C3AB95",
"f 	c #36322E",
"g 	c #0B0D0F",
"h 	c #6A95B1",
"i 	c #B9BDC8",
"j 	c #E8E7EF",
"k 	c #E9CEB2",
"l 	c #DED1B5",
"m 	c #EBE3CC",
"n 	c #CAAE94",
"o 	c #74675A",
"p 	c #1B1E2D",
"q 	c #232846",
"r 	c #10121C",
"s 	c #6E99BA",
"t 	c #C3AC9A",
"u 	c #EACBAF",
"v 	c #D2B699",
"w 	c #DACDB5",
"x 	c #E1D1C1",
"y 	c #AC9C8E",
"z 	c #2C2D2D",
"A 	c #242D65",
"B 	c #1F3D7A",
"C 	c #8D9DA0",
"D 	c #E1E3D9",
"E 	c #EECFB3",
"F 	c #D1BF9D",
"G 	c #CEC8AA",
"H 	c #CBCDFE",
"I 	c #C4B099",
"J 	c #3D3C48",
"K 	c #313B70",
"L 	c #193157",
"M 	c #44538C",
"N 	c #9FEAF0",
"O 	c #9FA1A4",
"P 	c #EAD1BA",
"Q 	c #D9C5AA",
"R 	c #979B97",
"S 	c #A29D92",
"T 	c #AA9075",
"U 	c #5B524A",
"V 	c #353C5D",
"W 	c #3A4B87",
"X 	c #425492",
"Y 	c #F1F3F5",
"Z 	c #E8FBFC",
"` 	c #F5F8F8",
" .	c #C6A27E",
"..	c #8F9899",
"+.	c #829CE8",
"@.	c #9C99A1",
"#.	c #615850",
"$.	c #393B3D",
"%.	c #374693",
"&.	c #7789AC",
"*.	c #82BEDB",
"=.	c #C0F2F6",
"-.	c #EBFBFC",
";.	c #D0D2D5",
">.	c #1F2124",
",.	c #606348",
"'.	c #3C4355",
").	c #716D6D",
"!.	c #5C5856",
"~.	c #37393B",
"{.	c #2C3E9C",
"].	c #7487B6",
"^.	c #AFCFDF",
"/.	c #CCEDF2",
"(.	c #C0DEE2",
"_.	c #62696B",
":.	c #464F28",
"<.	c #1C2908",
"[.	c #4E4F3A",
"}.	c #454649",
"|.	c #3C4466",
"1.	c #4A547E",
"2.	c #6F8ABE",
"3.	c #ACC1D7",
"4.	c #B7D4D8",
"5.	c #707A7D",
"6.	c #5A6567",
"7.	c #202424",
"8.	c #655205",
"9.	c #D7D9C9",
"0.	c #2F3235",
"a.	c #8D8F92",
"b.	c #747D9D",
"c.	c #A9B2CA",
"d.	c #C6D1E2",
"e.	c #B1BCC5",
"f.	c #2E3434",
"g.	c #09090A",
"h.	c #636668",
"i.	c #434751",
"j.	c #3F4146",
"k.	c #2A2B2E",
"l.	c #424647",
"                                          ",
"                                          ",
"                                          ",
"                            . +           ",
"                      @ # $ %             ",
"            & * = - ; > , ' )             ",
"          ! ~ { ] ^ / ( _ : < [           ",
"          } | 1 2 3 4 5 6 7 [ [           ",
"          8 9 0 a b c d e f g [           ",
"          h i j k l m n o p q r           ",
"          s t u v w x y z A B C           ",
"          D E F G H I J K L M N O         ",
"          P Q R S T U V W X Y Z `         ",
"           ...+.@.#.$.%.&.*.=.-.;.>.      ",
"          ,.'.).!.~.{.].^./.(._.[ [       ",
"        :.<.[.}.|.1.2.3.4.5.6.7.          ",
"      8.9.  0.a.b.c.d.e.f.g.              ",
"              h.i.j.k.l.                  ",
"                                          ",
"                                          ",
"                                          "};
