/* XPM */
static char * drafts_xpm[] = {
"16 16 7 1",
" 	c None",
".	c #000000",
"+	c #FFF7BC",
"@	c #C1B78D",
"#	c #FFFFFF",
"$	c #82794E",
"%	c #9FA1A4",
"            .   ",
"         ...+.  ",
"   .... .++++@. ",
"  .####.+++@@$. ",
" .####.+++@$$$. ",
" .###.+++@$$$.  ",
" .##.+++@$$..   ",
" .#.+++@$$..    ",
" .#.++@$$.##.   ",
"  .++@$$.###.%  ",
"  .++@$.#####.  ",
"  .+@$.######.  ",
"  .@$.#####..   ",
" ....###...     ",
" .. ....        ",
" .              "};
