/* XPM */
static char * folder_xpm[] = {
"22 22 153 2",
"  	c None",
". 	c #535453",
"+ 	c #94C8C8",
"@ 	c #D5D5D5",
"# 	c #4C4C4C",
"$ 	c #4D504F",
"% 	c #CBCBCB",
"& 	c #383938",
"* 	c #10B1B4",
"= 	c #1FCACB",
"- 	c #4EC1C2",
"; 	c #48504B",
"> 	c #69C6C5",
", 	c #505756",
"' 	c #38363A",
") 	c #7A8581",
"! 	c #65A6A8",
"~ 	c #52B9C3",
"{ 	c #738B88",
"] 	c #353F3F",
"^ 	c #14BDBD",
"/ 	c #4BCBCB",
"( 	c #90B3B7",
"_ 	c #AAB0B0",
": 	c #A3ADAD",
"< 	c #789B9C",
"[ 	c #7BB2B9",
"} 	c #92B2BA",
"| 	c #5D686A",
"1 	c #090909",
"2 	c #29ADB2",
"3 	c #25D1D2",
"4 	c #45D0D0",
"5 	c #90D2D2",
"6 	c #BAC4C4",
"7 	c #C3C3C3",
"8 	c #8A9C9C",
"9 	c #6B96A2",
"0 	c #89ACBB",
"a 	c #8A9DA2",
"b 	c #343C3B",
"c 	c #2DC4C6",
"d 	c #08D0D1",
"e 	c #0FD2D3",
"f 	c #12D0D0",
"g 	c #54D0D0",
"h 	c #9EC2C1",
"i 	c #A0A3A2",
"j 	c #ADB4B2",
"k 	c #73929B",
"l 	c #76ACBF",
"m 	c #81C6CA",
"n 	c #4B4D4A",
"o 	c #0AADC2",
"p 	c #03B7CA",
"q 	c #05AFCD",
"r 	c #0DC7CF",
"s 	c #39CED0",
"t 	c #4CCECF",
"u 	c #9ED0D0",
"v 	c #9FA3A2",
"w 	c #BFC0BF",
"x 	c #5F8291",
"y 	c #8FA5BC",
"z 	c #47B7BF",
"A 	c #23423F",
"B 	c #02ADB7",
"C 	c #00B7B7",
"D 	c #01B4B7",
"E 	c #03AFBB",
"F 	c #16C5C9",
"G 	c #36CFD0",
"H 	c #34CFD1",
"I 	c #4FCACB",
"J 	c #94BEC0",
"K 	c #9FA39F",
"L 	c #C3C6C6",
"M 	c #32435B",
"N 	c #7692B7",
"O 	c #6DBEC1",
"P 	c #112E2B",
"Q 	c #01A3A3",
"R 	c #007A86",
"S 	c #009E9F",
"T 	c #019FA1",
"U 	c #08B5B7",
"V 	c #1FC7C9",
"W 	c #1BC6CF",
"X 	c #28CCD0",
"Y 	c #20B7C8",
"Z 	c #525850",
"` 	c #729494",
" .	c #2F3F56",
"..	c #2C5481",
"+.	c #558B95",
"@.	c #005058",
"#.	c #026974",
"$.	c #0199A1",
"%.	c #0694A3",
"&.	c #0AA7AD",
"*.	c #1886BB",
"=.	c #17ABCA",
"-.	c #1A648F",
";.	c #464E45",
">.	c #83A8AF",
",.	c #3373A0",
"'.	c #41838C",
").	c #034A55",
"!.	c #03616C",
"~.	c #08677B",
"{.	c #047286",
"].	c #0991A5",
"^.	c #1280A6",
"/.	c #175F7D",
"(.	c #40493F",
"_.	c #58828A",
":.	c #2D445C",
"<.	c #2B6D97",
"[.	c #337E89",
"}.	c #06464C",
"|.	c #066166",
"1.	c #0B6977",
"2.	c #0F8794",
"3.	c #128097",
"4.	c #286C7F",
"5.	c #445045",
"6.	c #4B6769",
"7.	c #223B55",
"8.	c #255876",
"9.	c #2C819E",
"0.	c #076A6B",
"a.	c #0D646B",
"b.	c #106E7C",
"c.	c #196F7D",
"d.	c #307E89",
"e.	c #3C4846",
"f.	c #233C3D",
"g.	c #2A495A",
"h.	c #1D6F8F",
"i.	c #30829F",
"j.	c #0D696F",
"k.	c #125F69",
"l.	c #29777B",
"m.	c #305859",
"n.	c #234949",
"o.	c #195057",
"p.	c #1B7588",
"q.	c #227D8B",
"r.	c #0C6163",
"s.	c #1D6B6C",
"t.	c #296F6C",
"u.	c #1A5354",
"v.	c #0D4548",
"                                            ",
"                                            ",
"                                            ",
"                  .                         ",
"                  + @ #                     ",
"        $     % & * = - ;                   ",
"        > , ' @ @ ) ! ~ { ]                 ",
"        ^ / ( _ @ @ : < [ } | 1             ",
"        2 3 4 5 6 7 @ @ 8 9 0 a b           ",
"        c d e f g h i @ @ j k l m n         ",
"        o p q r s t u v w @ @ x y z A       ",
"        B C D E F G H I J K L M N O P       ",
"        Q R S T U V W X Y Z `  ...+.        ",
"          @.#.$.%.&.*.=.-.;.>. .,.'.        ",
"            ).!.~.{.].^./.(._.:.<.[.        ",
"              }.|.1.2.3.4.5.6.7.8.9.        ",
"                0.a.b.c.d.e.f.g.h.i.        ",
"                    j.k.l.m.n.o.p.q.        ",
"                      r.s.t.u.v.            ",
"                                            ",
"                                            ",
"                                            "};
