/* XPM */
static char * folder_xpm[] = {
"22 22 164 2",
"  	c None",
". 	c #636563",
"+ 	c #3CD0CC",
"@ 	c #8DCCCB",
"# 	c #5B5B5B",
"$ 	c #3A413F",
"% 	c #5B5F5E",
"& 	c #D1D1D1",
"* 	c #393A39",
"= 	c #0FCFD1",
"- 	c #08EBEF",
"; 	c #46DFE2",
"> 	c #4F564F",
", 	c #076C6C",
"' 	c #7BECEA",
") 	c #545B5A",
"! 	c #39373A",
"~ 	c #F0F0F0",
"{ 	c #E1E1E1",
"] 	c #676B67",
"^ 	c #3D8B8D",
"/ 	c #1CB7C8",
"( 	c #687C76",
"_ 	c #252625",
": 	c #10D2D3",
"< 	c #4CEAEA",
"[ 	c #8FB3B7",
"} 	c #9EA3A3",
"| 	c #DDDEDE",
"1 	c #F4F4F4",
"2 	c #919391",
"3 	c #456364",
"4 	c #4D95A6",
"5 	c #88AEBC",
"6 	c #585E60",
"7 	c #0B0B0B",
"8 	c #279098",
"9 	c #0DD3E0",
"0 	c #2DE7EA",
"a 	c #81DFDE",
"b 	c #9FABAB",
"c 	c #B4B4B4",
"d 	c #F6F6F6",
"e 	c #D0D2D0",
"f 	c #666E6C",
"g 	c #386378",
"h 	c #6C94B3",
"i 	c #86929B",
"j 	c #2C2D2C",
"k 	c #204B5F",
"l 	c #1C8BB1",
"m 	c #12B5CE",
"n 	c #1AD6E1",
"o 	c #52E5E7",
"p 	c #9ABCBB",
"q 	c #969998",
"r 	c #E4E4E4",
"s 	c #F1F2F1",
"t 	c #959895",
"u 	c #3A4B58",
"v 	c #456A90",
"w 	c #768B9F",
"x 	c #585A57",
"y 	c #182D44",
"z 	c #225486",
"A 	c #226FA2",
"B 	c #1B93BA",
"C 	c #14BBD2",
"D 	c #22DCE4",
"E 	c #8ED9D7",
"F 	c #959897",
"G 	c #AEAFAE",
"H 	c #F8F8F8",
"I 	c #CCCECC",
"J 	c #30475B",
"K 	c #375982",
"L 	c #455F79",
"M 	c #282D27",
"N 	c #1D252D",
"O 	c #1D3860",
"P 	c #1C4377",
"Q 	c #22568D",
"R 	c #2271A4",
"S 	c #1B97BD",
"T 	c #13C0D5",
"U 	c #43C8D4",
"V 	c #7CA1A4",
"W 	c #787B78",
"X 	c #C9CAC9",
"Y 	c #2A384C",
"Z 	c #1C3D6F",
"` 	c #364A56",
" .	c #121612",
"..	c #213148",
"+.	c #172F5B",
"@.	c #183668",
"#.	c #1D457B",
"$.	c #255990",
"%.	c #2476A7",
"&.	c #1A9EC1",
"*.	c #1AB5C3",
"=.	c #424741",
"-.	c #959595",
";.	c #1F2B3D",
">.	c #1D3C65",
",.	c #203540",
"'.	c #1D2529",
").	c #1F2F46",
"!.	c #132952",
"~.	c #142E5E",
"{.	c #19386B",
"].	c #20487D",
"^.	c #265E94",
"/.	c #31799F",
"(.	c #434B42",
"_.	c #797A7A",
":.	c #232D3F",
"<.	c #374A60",
"[.	c #243031",
"}.	c #171F23",
"|.	c #18263D",
"1.	c #13264E",
"2.	c #122957",
"3.	c #142F60",
"4.	c #1A3A6D",
"5.	c #30537C",
"6.	c #444E43",
"7.	c #505152",
"8.	c #212E43",
"9.	c #2B3B4C",
"0.	c #191F1D",
"a.	c #25313D",
"b.	c #1A2C4B",
"c.	c #112652",
"d.	c #122959",
"e.	c #2B4365",
"f.	c #475248",
"g.	c #323436",
"h.	c #111F3C",
"i.	c #192533",
"j.	c #030504",
"k.	c #2B3637",
"l.	c #253548",
"m.	c #15274D",
"n.	c #213455",
"o.	c #3D4946",
"p.	c #151819",
"q.	c #0E1934",
"r.	c #090E12",
"s.	c #000000",
"t.	c #313A38",
"u.	c #303D46",
"v.	c #2A3A4C",
"w.	c #3A4848",
"x.	c #242925",
"y.	c #191E22",
"z.	c #010101",
"A.	c #3E4240",
"B.	c #445048",
"C.	c #495649",
"D.	c #2B302A",
"E.	c #0B0D0B",
"F.	c #1D221C",
"G.	c #090A09",
"                                            ",
"                                            ",
"                                            ",
"                  .                         ",
"                  + @ #                     ",
"      $ %     & * = - ; >                   ",
"      , ' ) ! ~ { ] ^ / ( _                 ",
"        : < [ } | 1 2 3 4 5 6 7             ",
"        8 9 0 a b c d e f g h i j           ",
"        k l m n o p q r s t u v w x         ",
"        y z A B C D E F G H I J K L M       ",
"        N O P Q R S T U V W X Y Z `  .      ",
"          ..+.@.#.$.%.&.*.=.-.;.>.,.        ",
"          '.).!.~.{.].^./.(._.:.<.[.        ",
"            }.|.1.2.3.4.5.6.7.8.9.0.        ",
"                a.b.c.d.e.f.g.h.i.j.        ",
"                  k.l.m.n.o.p.q.r.s.s.      ",
"                    t.u.v.w.x.y.z.s.s.      ",
"                      A.B.C.D.E.s.s.        ",
"                          F.G.z.            ",
"                                            ",
"                                            "};
