/* XPM */
static char * forward_xpm[] = {
"16 16 75 1",
" 	c None",
".	c #9A9A9A",
"+	c #717171",
"@	c #2D2D2D",
"#	c #AAAAAA",
"$	c #7A7A7A",
"%	c #898989",
"&	c #E5E5E5",
"*	c #F7F7F7",
"=	c #F6F6F6",
"-	c #F8F8F8",
";	c #E4E4E4",
">	c #949494",
",	c #A2A2A2",
"'	c #858585",
")	c #B1B1B1",
"!	c #818181",
"~	c #F5F5F5",
"{	c #DADADA",
"]	c #E0E0E0",
"^	c #B7B7B7",
"/	c #7F7F7F",
"(	c #E2E2E2",
"_	c #E1E1E1",
":	c #8E8E8E",
"<	c #EDEDED",
"[	c #E8E8E8",
"}	c #848484",
"|	c #737373",
"1	c #BEBEBE",
"2	c #C3C3C3",
"3	c #AFAFAF",
"4	c #B4B4B4",
"5	c #919191",
"6	c #C9C9C9",
"7	c #9C9C9C",
"8	c #363636",
"9	c #DBDBDB",
"0	c #CDCDCD",
"a	c #BDBDBD",
"b	c #F3F3F3",
"c	c #E9E9E9",
"d	c #C7C7C7",
"e	c #D7D7D7",
"f	c #F1F1F1",
"g	c #EBEBEB",
"h	c #372B24",
"i	c #133FF2",
"j	c #6F6F6F",
"k	c #A8A8A8",
"l	c #8F8F8F",
"m	c #583725",
"n	c #FFFF3C",
"o	c #FFFF51",
"p	c #0C5B91",
"q	c #FFB82A",
"r	c #CACACA",
"s	c #272727",
"t	c #3F3F3F",
"u	c #2A2A2A",
"v	c #72503C",
"w	c #2873A4",
"x	c #50453E",
"y	c #80B3D3",
"z	c #43210E",
"A	c #82CEEE",
"B	c #42200E",
"C	c #436988",
"D	c #311D0F",
"E	c #160A04",
"F	c #291408",
"G	c #4A240E",
"H	c #180B01",
"I	c #2A1A0E",
"J	c #0D0D0D",
" .++++++++++.   ",
".@##########@.  ",
"+$%&*=--*=;>,+  ",
"+')!~~~~~~>{#+  ",
"+']^/(~~_:<-#+  ",
"+'[_}$~~|1~-#+  ",
"+'[234%56789#+  ",
"+'0abcdefghi#+  ",
"+jkeeelmnnopq+  ",
"rsttttuvwwwwwx  ",
"      +myyyyyyir",
"      +zAAAAAAir",
"      +BCCCCCD  ",
"      +EFFGiDr  ",
"          HI    ",
"          Jr    "};
