/* XPM */
static char * mark_xpm[] = {
"16 16 208 2",
"  	c None",
". 	c #FFCCC0",
"+ 	c #FFE5A7",
"@ 	c #FFD18E",
"# 	c #FFA1CF",
"$ 	c #FFDC90",
"% 	c #FFE7B0",
"& 	c #FFDAA6",
"* 	c #FFD193",
"= 	c #FFCC92",
"- 	c #FFE7B1",
"; 	c #FFE4B0",
"> 	c #FFE4AF",
", 	c #FFD89B",
"' 	c #FFC677",
") 	c #FFA03D",
"! 	c #FFE1B6",
"~ 	c #FFCE8C",
"{ 	c #FFFE90",
"] 	c #FFFFB4",
"^ 	c #FFFFD5",
"/ 	c #FFFFC0",
"( 	c #FFFFED",
"_ 	c #FFFFD7",
": 	c #FEFFD1",
"< 	c #FFFFC9",
"[ 	c #FFE2BD",
"} 	c #FF9A3F",
"| 	c #FFA683",
"1 	c #FFE1CB",
"2 	c #56604C",
"3 	c #FFFFFF",
"4 	c #6F7D6A",
"5 	c #DAEBDE",
"6 	c #5A6D5F",
"7 	c #FDFFF9",
"8 	c #5A6963",
"9 	c #A6B2AE",
"0 	c #A1A59C",
"a 	c #9D9989",
"b 	c #FDEB91",
"c 	c #FF3D6B",
"d 	c #FAC7B3",
"e 	c #FFFFAE",
"f 	c #B69C8A",
"g 	c #F1FCF1",
"h 	c #F3FEFA",
"i 	c #F3FFFF",
"j 	c #F4FFFF",
"k 	c #F2FFFF",
"l 	c #F0FFFF",
"m 	c #E4F2FD",
"n 	c #E6EAF0",
"o 	c #E7DCE1",
"p 	c #543A28",
"q 	c #F7B473",
"r 	c #FFBF60",
"s 	c #FFD2AB",
"t 	c #FFFCB3",
"u 	c #B6958A",
"v 	c #808270",
"w 	c #EDF1F6",
"x 	c #F7DBE3",
"y 	c #FCE1F0",
"z 	c #F3F7FF",
"A 	c #ECCAE0",
"B 	c #E7B2F9",
"C 	c #655657",
"D 	c #CF7F7C",
"E 	c #F6AD77",
"F 	c #FFBA60",
"G 	c #FFD1BA",
"H 	c #FFFA99",
"I 	c #FFF6A1",
"J 	c #DBCABC",
"K 	c #F7CECE",
"L 	c #858581",
"M 	c #ECEEFD",
"N 	c #F6D5E7",
"O 	c #F1F4FF",
"P 	c #F2CCE8",
"Q 	c #E6B6FF",
"R 	c #685F6D",
"S 	c #E19BAF",
"T 	c #DA8484",
"U 	c #FFD087",
"V 	c #FFA057",
"W 	c #FF9666",
"X 	c #FFB35C",
"Y 	c #FFF5A3",
"Z 	c #D7B8AE",
"` 	c #F7CACD",
" .	c #F1C6D1",
"..	c #7E767C",
"+.	c #EBE7F4",
"@.	c #EDC3DF",
"#.	c #E9B7FF",
"$.	c #675D6F",
"%.	c #E1A9C9",
"&.	c #DC96AE",
"*.	c #E3848B",
"=.	c #FFD383",
"-.	c #FF9D65",
";.	c #FFDA77",
">.	c #FFBD83",
",.	c #FFF29E",
"'.	c #D6B1A6",
").	c #F7C7CA",
"!.	c #F1C0CD",
"~.	c #938484",
"{.	c #6D646E",
"].	c #DDD9F4",
"^.	c #685B6A",
"/.	c #756373",
"(.	c #D691AF",
"_.	c #CD8C9F",
":.	c #E08488",
"<.	c #FFD38C",
"[.	c #FFB26D",
"}.	c #FFBB5F",
"|.	c #FFCE89",
"1.	c #FFE39B",
"2.	c #E1C1B3",
"3.	c #F2BFC0",
"4.	c #8E7F79",
"5.	c #DFA2B2",
"6.	c #E3B2C7",
"7.	c #695D66",
"8.	c #DC99B2",
"9.	c #DE96AF",
"0.	c #675557",
"a.	c #B67D87",
"b.	c #DA7E80",
"c.	c #FFD690",
"d.	c #FFB568",
"e.	c #FFC77C",
"f.	c #FFC9A9",
"g.	c #F6E09D",
"h.	c #B58D7D",
"i.	c #8B7E67",
"j.	c #EEBDBB",
"k.	c #E1A7B1",
"l.	c #EBABB6",
"m.	c #DFA4B1",
"n.	c #E3A4B1",
"o.	c #D3989F",
"p.	c #AE8186",
"q.	c #4D3D38",
"r.	c #D7837C",
"s.	c #FFD99F",
"t.	c #FF7C92",
"u.	c #FFD4C0",
"v.	c #EBE293",
"w.	c #9E8BBB",
"x.	c #BD8F84",
"y.	c #C0968D",
"z.	c #C59992",
"A.	c #C69A99",
"B.	c #C29A96",
"C.	c #C19895",
"D.	c #B8938A",
"E.	c #B18C83",
"F.	c #BC9C7E",
"G.	c #855E33",
"H.	c #FFD5B4",
"I.	c #FFAE57",
"J.	c #D9B197",
"K.	c #D6C787",
"L.	c #E7E189",
"M.	c #F8F7E3",
"N.	c #F7F3C0",
"O.	c #F7F2C2",
"P.	c #F4F0AA",
"Q.	c #F4F3BF",
"R.	c #EDEABA",
"S.	c #E5E9B2",
"T.	c #E2E59E",
"U.	c #F5D295",
"V.	c #FFBE57",
"W.	c #F9DA99",
"X.	c #C29166",
"Y.	c #EFC160",
"Z.	c #F5F48E",
"`.	c #F5F799",
" +	c #F6F4B4",
".+	c #F6F499",
"++	c #F4F4A5",
"@+	c #F2F5B8",
"#+	c #EBEEAD",
"$+	c #E4D886",
"%+	c #FFA650",
"&+	c #FFA988",
"*+	c #E6DD9E",
"=+	c #F3A04B",
"-+	c #F5A886",
";+	c #F5C88B",
">+	c #F6D693",
",+	c #F5D087",
"'+	c #ECC37B",
")+	c #E5C469",
"!+	c #FFB963",
"~+	c #FAC6B0",
"{+	c #F0C1AA",
"]+	c #F2957C",
"^+	c #FF9697",
"/+	c #FF9B5D",
"(+	c #FF9977",
"_+	c #FFBB9C",
"          . + @ # $ %           ",
"      & * = - ; > , ' ) !       ",
"    ~ { ] ^ / ( _ : < [ } |     ",
"  1 2 3 4 5 6 7 8 9 0 a b c d   ",
"  e f g h i j k l m n o p q r   ",
"s t u v w x k y z A B C D E F G ",
"H I J K L M N O P Q R S T U V W ",
"X Y Z `  ...+.@.#.$.%.&.*.=.-.;.",
">.,.'.).!.~.{.].^./.(._.:.<.[.}.",
"|.1.2.3.4.5.6.7.8.9.0.a.b.c.d.e.",
"f.g.h.i.j.k.l.m.n.o.p.q.r.s.t.u.",
"  v.w.x.y.z.A.B.C.D.E.F.G.H.I.  ",
"  J.K.L.M.N.O.P.Q.R.S.T.U.V.W.  ",
"    X.Y.Z.`. +.+++@+#+$+%+&+    ",
"      *+=+-+;+>+,+'+)+!+~+      ",
"          {+]+^+/+(+_+          "};
