/* XPM */
static char * mark_xpm[] = {
"16 16 34 1",
" 	c None",
".	c #000000",
"+	c #202020",
"@	c #153061",
"#	c #817968",
"$	c #F5F5F5",
"%	c #4D493C",
"&	c #736C5C",
"*	c #F5EEEE",
"=	c #FFCBCB",
"-	c #FAF3EC",
";	c #F7B4B4",
">	c #60594D",
",	c #CE9C9C",
"'	c #746D5D",
")	c #F5F1F1",
"!	c #F8F4ED",
"~	c #645F4F",
"{	c #C49797",
"]	c #71685A",
"^	c #FCF5EA",
"/	c #F2B3B3",
"(	c #90856F",
"_	c #7C7361",
":	c #E0AAAA",
"<	c #887F6B",
"[	c #FFBABA",
"}	c #726B59",
"|	c #CC9B9B",
"1	c #8B816C",
"2	c #FFBCBC",
"3	c #534D42",
"4	c #645F51",
"5	c #4C483D",
"                ",
"                ",
"                ",
"  .+.........   ",
" @#$$$$$$$$$%.  ",
" @$&*=$=-=;>,.  ",
" @$=')=!=;~;{.  ",
" @$==]^=;~=/{.  ",
" @$==(~$~_;:{.  ",
" @$=<;=~;[}|{.  ",
" @$1=/2/[/|3,.  ",
" @4{{{{{{{{,5.  ",
"  @@@@@@@@@@@   ",
"                ",
"                ",
"                "};
