/* XPM */
static char * outbox_xpm[] = {
"22 22 98 2",
"  	c None",
". 	c #636563",
"+ 	c #F4E39F",
"@ 	c #FFFFFF",
"# 	c #5B5B5B",
"$ 	c #5B5F5E",
"% 	c #434443",
"& 	c #3FDAD6",
"* 	c #B3C095",
"= 	c #304F22",
"- 	c #405636",
"; 	c #606867",
"> 	c #434145",
", 	c #92A09B",
"' 	c #79C7C9",
") 	c #E2E3BC",
"! 	c #577749",
"~ 	c #456239",
"{ 	c #4F7339",
"] 	c #59C6B4",
"^ 	c #F7F4CF",
"/ 	c #CCD3D3",
"( 	c #C4D0CF",
"_ 	c #C3D7C5",
": 	c #F3F2CF",
"< 	c #89B386",
"[ 	c #6A984B",
"} 	c #141910",
"| 	c #483F36",
"1 	c #3F5034",
"2 	c #DFEBEB",
"3 	c #F5F3D1",
"4 	c #B5C6BE",
"5 	c #ECEECD",
"6 	c #D2DAAB",
"7 	c #6B8D4A",
"8 	c #45583A",
"9 	c #3F3B31",
"0 	c #455035",
"a 	c #C8CAC4",
"b 	c #CFD8D6",
"c 	c #B5CAC2",
"d 	c #E3E4BB",
"e 	c #5C8862",
"f 	c #4D5543",
"g 	c #2B3C26",
"h 	c #30412B",
"i 	c #5C6E54",
"j 	c #ECEBDC",
"k 	c #8CADB4",
"l 	c #192315",
"m 	c #2A4E4A",
"n 	c #283520",
"o 	c #3C506D",
"p 	c #2C3E27",
"q 	c #143734",
"r 	c #324619",
"s 	c #32451B",
"t 	c #626960",
"u 	c #384C67",
"v 	c #EDECCC",
"w 	c #403A31",
"x 	c #415624",
"y 	c #49661B",
"z 	c #4C6A1C",
"A 	c #445F1E",
"B 	c #4D4E3A",
"C 	c #58802E",
"D 	c #59812A",
"E 	c #4B7844",
"F 	c #36516E",
"G 	c #66944D",
"H 	c #43713D",
"I 	c #63933D",
"J 	c #3A7A72",
"K 	c #949B84",
"L 	c #294766",
"M 	c #F0EFCC",
"N 	c #689454",
"O 	c #1A745F",
"P 	c #4D7E36",
"Q 	c #58863C",
"R 	c #3997A4",
"S 	c #526963",
"T 	c #32576C",
"U 	c #586750",
"V 	c #355F2B",
"W 	c #3A622B",
"X 	c #318F93",
"Y 	c #B1C1AA",
"Z 	c #1E6068",
"` 	c #1F8AA0",
" .	c #485E3C",
"..	c #1B5B3E",
"+.	c #238081",
"@.	c #52978E",
"#.	c #246667",
"$.	c #0F5155",
"                                            ",
"                                            ",
"                                            ",
"                  .                         ",
"                  + @ #                     ",
"        $     + % & * = -                   ",
"        + ; > + + , ' ) ! ~                 ",
"        { ] ^ / ^ + ( _ : < [ }             ",
"        | | 1 + 2 3 + + 4 5 6 7 8           ",
"        9 9 9 9 0 + a ^ + b c d e f         ",
"        g g g g g h i + j + + k : l m       ",
"        l l l l l l l n + + + o ^ p q       ",
"        r r r r r r r r s t + u v w         ",
"        x y z z z z z z A + + u ^ B         ",
"            C D D D D D E + ^ F + G         ",
"              H I I I I J K + L M N         ",
"                O P Q Q R + S T + U         ",
"                    V W X Y + Z `  .        ",
"                      ..+.@.#.$.            ",
"                                            ",
"                                            ",
"                                            "};
