/* XPM */
static char * outbox_xpm[] = {
"16 16 47 1",
" 	c None",
".	c #271D8E",
"+	c #A7A4A0",
"@	c #FFFFFF",
"#	c #64625F",
"$	c #95938E",
"%	c #7D7B78",
"&	c #969491",
"*	c #81807C",
"=	c #FCFCFC",
"-	c #FBFBFB",
";	c #F9F8F6",
">	c #FBFAFA",
",	c #F6F5F1",
"'	c #EAE8E3",
")	c #F6F4F1",
"!	c #E5E3DE",
"~	c #83817E",
"{	c #928F8B",
"]	c #EFE3E5",
"^	c #C9929C",
"/	c #ECDFDD",
"(	c #F5F3F0",
"_	c #F7F6F4",
":	c #B5B2AC",
"<	c #844A53",
"[	c #890822",
"}	c #A09C97",
"|	c #F0EFEB",
"1	c #E4E2DD",
"2	c #AEABA6",
"3	c #DDBDC2",
"4	c #862336",
"5	c #DCBCBF",
"6	c #F7F5F2",
"7	c #92908B",
"8	c #E8E6E1",
"9	c #B0ADA7",
"0	c #F3EEEB",
"a	c #E4CECF",
"b	c #F3EDEB",
"c	c #6B6A68",
"d	c #E1DFDA",
"e	c #E2DFD9",
"f	c #E2E0DB",
"g	c #E3E1DC",
"h	c #E6E4DF",
"                ",
" ...........    ",
".+@@@@@@@@@#.   ",
".@$@@@@@@@%@.   ",
".@@&@@@@@*@@.   ",
".@@@........... ",
".@@.+=========#.",
".@@.=$-;=;>;,%'.",
".@@.=;&>;>;)*)!.",
".~@.=;;{]^/*;(!.",
" ...=;_:<[<},|1.",
"   .=_2;3456781.",
"   .=9;(0ab('c8.",
"   .~deeedffgh#.",
"    ........... ",
"                "};
