/* XPM */
static char * read_xpm[] = {
"16 16 85 1",
" 	c None",
".	c #BFBFBF",
"+	c #BEBEBE",
"@	c #EBEBEB",
"#	c #EEEEEE",
"$	c #E3E3E3",
"%	c #A0A0A0",
"&	c #CECECE",
"*	c #DADADA",
"=	c #999999",
"-	c #A7A7A7",
";	c #FDFDFD",
">	c #F8F8F7",
",	c #787878",
"'	c #B5B5B5",
")	c #BCBCBC",
"!	c #FAFAFA",
"~	c #EDEDED",
"{	c #707070",
"]	c #909090",
"^	c #E0E0E0",
"/	c #FDFCFC",
"(	c #626262",
"_	c #979797",
":	c #DFDFDF",
"<	c #A8A8A8",
"[	c #FCFCFC",
"}	c #F2F2F2",
"|	c #DCDCDC",
"1	c #939393",
"2	c #3D3D3D",
"3	c #656565",
"4	c #C1C1C0",
"5	c #7E7E7E",
"6	c #7D7D7D",
"7	c #8A8A8A",
"8	c #EBEBEA",
"9	c #888888",
"0	c #E6E6E6",
"a	c #BDBDBD",
"b	c #7F7E7E",
"c	c #4F4F4F",
"d	c #7C7C7C",
"e	c #C8C8C8",
"f	c #B8B8B7",
"g	c #D8D8D7",
"h	c #6E6E6E",
"i	c #FBFBFB",
"j	c #F9F9F9",
"k	c #B1B1B1",
"l	c #ECECEB",
"m	c #D7D7D7",
"n	c #C7C7C7",
"o	c #E7E7E6",
"p	c #F8F7F7",
"q	c #BBBBBB",
"r	c #8E8E8D",
"s	c #F4F4F4",
"t	c #C6C6C6",
"u	c #FDFDFC",
"v	c #FBFAFA",
"w	c #EFEFEF",
"x	c #F2F2F1",
"y	c #F7F7F7",
"z	c #9C9B9B",
"A	c #ECECEC",
"B	c #E4E4E4",
"C	c #CDCDCD",
"D	c #FCFCFB",
"E	c #F7F6F6",
"F	c #EAEAE9",
"G	c #C3C3C2",
"H	c #969696",
"I	c #676767",
"J	c #D6D6D6",
"K	c #F0F0F0",
"L	c #A6A6A6",
"M	c #757575",
"N	c #454545",
"O	c #0E0E0E",
"P	c #A1A1A1",
"Q	c #B6B6B6",
"R	c #585858",
"S	c #232323",
"T	c #000000",
"                ",
"                ",
"                ",
" .+@########$%  ",
" &*=-#;;;;;>,'  ",
" )!~){]^;;/(_:  ",
" <;[}|12345678  ",
" 9;;[0]abcdefg  ",
" hi;jk0lmn&opqr ",
"  s[t*uvswxyixz ",
"  ABC;/[[DEFGHI ",
"  JC;vKmLMNO    ",
"  PQ7RST        ",
"                ",
"                ",
"                "};
