/* XPM */
static char * reply_xpm[] = {
"16 16 86 1",
" 	c None",
".	c #9A9A9A",
"+	c #717171",
"@	c #2D2D2D",
"#	c #AAAAAA",
"$	c #A2A2A2",
"%	c #949494",
"&	c #E4E4E4",
"*	c #F6F6F6",
"=	c #F7F7F7",
"-	c #F8F8F8",
";	c #E5E5E5",
">	c #898989",
",	c #7A7A7A",
"'	c #DADADA",
")	c #F5F5F5",
"!	c #818181",
"~	c #B1B1B1",
"{	c #858585",
"]	c #EDEDED",
"^	c #8E8E8E",
"/	c #E1E1E1",
"(	c #E2E2E2",
"_	c #7F7F7F",
":	c #B7B7B7",
"<	c #E0E0E0",
"[	c #BEBEBE",
"}	c #737373",
"|	c #848484",
"1	c #E8E8E8",
"2	c #DBDBDB",
"3	c #363636",
"4	c #9C9C9C",
"5	c #C9C9C9",
"6	c #919191",
"7	c #B4B4B4",
"8	c #AFAFAF",
"9	c #C3C3C3",
"0	c #6F635C",
"a	c #372B24",
"b	c #EBEBEB",
"c	c #F1F1F1",
"d	c #D7D7D7",
"e	c #C7C7C7",
"f	c #E9E9E9",
"g	c #F3F3F3",
"h	c #BDBDBD",
"i	c #CDCDCD",
"j	c #372E28",
"k	c #F6B893",
"l	c #88634D",
"m	c #534339",
"n	c #2C211A",
"o	c #8F8F8F",
"p	c #A8A8A8",
"q	c #6F6F6F",
"r	c #50453E",
"s	c #DBA585",
"t	c #F4A677",
"u	c #F5AD82",
"v	c #F5B189",
"w	c #72503C",
"x	c #2A2A2A",
"y	c #3F3F3F",
"z	c #272727",
"A	c #CACACA",
"B	c #362921",
"C	c #DC976F",
"D	c #DA8A5B",
"E	c #583725",
"F	c #984816",
"G	c #A75223",
"H	c #43210E",
"I	c #311D0F",
"J	c #853F12",
"K	c #A55123",
"L	c #9C4C20",
"M	c #984B20",
"N	c #42200E",
"O	c #853E12",
"P	c #4A240E",
"Q	c #291408",
"R	c #160A04",
"S	c #2A1A0E",
"T	c #180B01",
"U	c #0D0D0D",
"   .++++++++++. ",
"  .@##########@.",
"  +$%&*=--*=;>,+",
"  +#'%))))))!~{+",
"  +#-]^/))(_:<{+",
"  +#-)[})),|/1{+",
"  +#23456>7891{+",
"  +#0abcdefghi{+",
"  +jklmmnodddpq+",
"  rstuvvwxyyyyzA",
"ABCDDDDDE+      ",
"ABFGGGGGH+      ",
"  IJKLMMN+      ",
"  AIOPQQR+      ",
"    ST          ",
"    AU          "};
