/* XPM */
static char * unread_xpm[] = {
"16 16 49 1",
" 	c None",
".	c #000000",
"+	c #202020",
"@	c #153061",
"#	c #817968",
"$	c #F5F5F5",
"%	c #4D493C",
"&	c #736C5C",
"*	c #F5EEEE",
"=	c #FFEDC7",
"-	c #FAF3EC",
";	c #FCE6B5",
">	c #60594D",
",	c #D3C29E",
"'	c #746D5D",
")	c #F5F1F1",
"!	c #FDEECD",
"~	c #F8F4ED",
"{	c #FAE3B3",
"]	c #645F4F",
"^	c #C9BA98",
"/	c #71685A",
"(	c #FCF5EA",
"_	c #FFE8B7",
":	c #F5DEB2",
"<	c #FFEABD",
"[	c #90856F",
"}	c #7C7361",
"|	c #E4D1A9",
"1	c #C9B996",
"2	c #FFEBC2",
"3	c #887F6B",
"4	c #726B59",
"5	c #D1BF9C",
"6	c #8B816C",
"7	c #FFE9BA",
"8	c #F9E2B2",
"9	c #FFE8B8",
"0	c #F6DFB3",
"a	c #D4C19D",
"b	c #534D42",
"c	c #CFBF9C",
"d	c #645F51",
"e	c #C2B293",
"f	c #C4B393",
"g	c #C4B495",
"h	c #C5B596",
"i	c #CCBC99",
"j	c #4C483D",
"                ",
"                ",
"                ",
"  .+.........   ",
" @#$$$$$$$$$%.  ",
" @$&*=$=-=;>,.  ",
" @$=')!~={]{^.  ",
" @$==/(=_]=:^.  ",
" @$=<[]$]};|1.  ",
" @$23==]__451.  ",
" @$6=:7890abc.  ",
" @defffegghij.  ",
"  @@@@@@@@@@@   ",
"                ",
"                ",
"                "};
