/* XPM */
static char * unread_xpm[] = {
"16 16 116 2",
"  	c None",
". 	c #6B6D7A",
"+ 	c #47474A",
"@ 	c #393F62",
"# 	c #626462",
"$ 	c #616262",
"% 	c #686969",
"& 	c #686869",
"* 	c #616161",
"= 	c #616160",
"- 	c #606060",
"; 	c #5F605F",
"> 	c #5F5F5E",
", 	c #3C4B97",
"' 	c #A9A4A7",
") 	c #F9F6F7",
"! 	c #F6F2F3",
"~ 	c #F9F5F6",
"{ 	c #FAF6F7",
"] 	c #FAF5F7",
"^ 	c #FAF5F8",
"/ 	c #FAF4F9",
"( 	c #F9F2F8",
"_ 	c #908F88",
": 	c #4353B0",
"< 	c #F8F4F7",
"[ 	c #6C6963",
"} 	c #FAF6DD",
"| 	c #FAF6F6",
"1 	c #FBF5DB",
"2 	c #FBF4F7",
"3 	c #FBF4D7",
"4 	c #FBF3D5",
"5 	c #5F5E5E",
"6 	c #DFD6C2",
"7 	c #F5F1F8",
"8 	c #AAA59E",
"9 	c #F3EBEA",
"0 	c #FBF5DC",
"a 	c #FCF5F6",
"b 	c #FCF4D9",
"c 	c #FCF3D7",
"d 	c #A19F97",
"e 	c #FAF0D2",
"f 	c #E0D7C3",
"g 	c #4354AF",
"h 	c #FBF5F8",
"i 	c #F9F3DA",
"j 	c #FCF5DC",
"k 	c #696565",
"l 	c #FCF5F5",
"m 	c #FCF3D8",
"n 	c #A3A299",
"o 	c #FBF0D5",
"p 	c #FBEDD1",
"q 	c #E0D7C4",
"r 	c #606160",
"s 	c #4354AE",
"t 	c #F4EEDA",
"u 	c #FAF2DA",
"v 	c #BAB4A3",
"w 	c #A5A199",
"x 	c #FCF3F5",
"y 	c #A5A299",
"z 	c #8D826A",
"A 	c #FCF0D2",
"B 	c #E9E0C9",
"C 	c #606161",
"D 	c #4354B5",
"E 	c #F6F1F7",
"F 	c #F7F0DB",
"G 	c #A79D86",
"H 	c #FCF2DA",
"I 	c #FCF2D7",
"J 	c #64635E",
"K 	c #FCF1D4",
"L 	c #FCF0D4",
"M 	c #A9A59B",
"N 	c #E2D8C4",
"O 	c #E0D6C3",
"P 	c #5F6161",
"Q 	c #4354B7",
"R 	c #F5EFF7",
"S 	c #9F957F",
"T 	c #FCF2DB",
"U 	c #FCF1D0",
"V 	c #FCF1D5",
"W 	c #FCEFD4",
"X 	c #9A998C",
"Y 	c #E0D6C2",
"Z 	c #5F6061",
"` 	c #4B5DA7",
" .	c #9A9790",
"..	c #D8CDC2",
"+.	c #D9CFC6",
"@.	c #D2C8C4",
"#.	c #D3CACA",
"$.	c #DBD1D3",
"%.	c #DAD0D1",
"&.	c #DCD3D3",
"*.	c #DDD3D2",
"=.	c #D9CFB9",
"-.	c #837B73",
";.	c #5E6061",
">.	c #80828E",
",.	c #6171B9",
"'.	c #6A7AD8",
").	c #6272D2",
"!.	c #3B4EB4",
"~.	c #4052B3",
"{.	c #4C5DB7",
"].	c #4C5DB6",
"^.	c #4A5CB4",
"/.	c #46569A",
"(.	c #3C4D90",
"_.	c #646672",
"                                ",
"                                ",
"                                ",
"  . + @ # $ % & * = - ; >       ",
"  , ' ) ! ~ { ] ] ^ / ( _ >     ",
"  : < [ ] } | 1 2 3 4 5 6 ;     ",
"  : 7 1 8 9 0 a b c d e f -     ",
"  g h i j k l b m n o p q r     ",
"  s h t u v w x y z A B q C     ",
"  D E F G H I J K L M N O P     ",
"  Q R S T U V L W L q X Y Z     ",
"  `  ...+.@.#.$.%.&.*.=.-.;.    ",
"  >.,.'.).!.~.{.{.].^./.(._.    ",
"                                ",
"                                ",
"                                "};
